<svg xmlns="http://www.w3.org/2000/svg" viewBox="0 0 48 48"><path d="M13.63,44l.16-.65A10.9,10.9,0,0,0,14,42.25a2.82,2.82,0,0,1,.09-.52,4,4,0,0,0,.12-.43c0-.19,0-.2,0-.43s.09-.32.05-.4-.17-.12-.35-.19a2.12,2.12,0,0,1-.55-.37,2.64,2.64,0,0,1-.6-.82,8.36,8.36,0,0,1-.42-.85,9,9,0,0,1-.52-1.35,5.19,5.19,0,0,0-.2-.72,6,6,0,0,1-.25-.58,4.37,4.37,0,0,1-.12-.8c-.06-.53-.09-.8-.12-1s-.08-.31-.15-.61a2.23,2.23,0,0,1-.09-.45,1.81,1.81,0,0,1,0-.42,2.66,2.66,0,0,0-.15-.85c-.11-.57.16-.6.1-1.21s-.2-.46-.27-1.06a2.05,2.05,0,0,1,0-.74c.05-.22.11-.27.22-.65a1.54,1.54,0,0,0,.12-.56c0-.3-.2-.34-.26-.63s.06-.26.16-.71,0-.53.12-1a5.31,5.31,0,0,0,.2-.74,2.9,2.9,0,0,0-.1-.83,2.09,2.09,0,0,1,.59-1.8,3,3,0,0,1,.51-.26c.47-.21.84-.34,1-.41,2-.63,3-.95,3.77-.82A3.58,3.58,0,0,0,18.41,20a.62.62,0,0,0,.4-.23c.14-.19,0-.33.11-.63s.24-.25.43-.66a3.16,3.16,0,0,1,.28-.64.66.66,0,0,1,.31-.29c.32-.14.63.14.78,0s0-.16.1-.37a.84.84,0,0,1,.18-.25c.17-.24-.1-.7-.24-1.08-.38-1,0-1.59-.38-1.83-.23-.14-.36.06-.66-.08s-.26-.38-.72-1.12a2.81,2.81,0,0,1-.46-.82,1.71,1.71,0,0,1,0-.66.91.91,0,0,1,.26-.67c.26-.18.6,0,.67-.09s-.25-.29-.4-.68c-.22-.57.21-.91,0-1.64C19,8,18.91,8,18.85,7.83c-.18-.66.33-1.12.92-2.33.48-1,.32-1,.67-1.49A4,4,0,0,1,22,2.92a4,4,0,0,1,2.06-.64,4.16,4.16,0,0,0,1.18.06c.47-.08.52-.22,1-.29a1.68,1.68,0,0,1,1.27.17,1.94,1.94,0,0,1,.48,1c.16.55.07.68.26.88s.42.15.76.47a.91.91,0,0,1,.33.47c.06.34-.23.52-.15.74s.41.19.74.36a1.82,1.82,0,0,1,.75,2.1,10.45,10.45,0,0,1-.85.92,3.27,3.27,0,0,0-.43.49c-.26.45-.32,1.08-.07,1.24s.3-.07.5,0,.36.68.3,1.06-.21.34-.32.87a2.36,2.36,0,0,1-.26.92,1.17,1.17,0,0,1-.21.24,1.59,1.59,0,0,1-.43.24c-.4.19-.41.17-.44.22s0,.26-.05.68a1.54,1.54,0,0,1-.06.48c-.14.42-.53.35-.75.77a1.15,1.15,0,0,0-.05.9c.06.18.11.14.19.33.16.42,0,.67.11,1s.19.18.37.29c.52.34.61.74.92,1.09a2.94,2.94,0,0,0,1.48.74c1,.33,1.19.17,2.74.54a8.91,8.91,0,0,1,1.38.43c.68.27,1,.41,1.23.7a1,1,0,0,0,.31.32,1.27,1.27,0,0,0,.46.11c.44.14.71.92.63,1.55,0,.27-.1.23-.19.58a6.38,6.38,0,0,0,0,1.74c0,.31,0,.11-.16,1.25-.07.64-.08.85-.16,1.5-.05.35-.1.71-.13.91a20.78,20.78,0,0,1-.9,3c-.5,1.49-.59,1.69-.83,1.89s-.43.3-.38.49.18.12.33.26A1,1,0,0,1,35,37.19c-.22.27-.53.19-.61.43s.08.23.1.58,0,.36-.06.47-.52,0-.68.25,0,.3-.18.47a1.76,1.76,0,0,1-.18.13c-.27.26.69,1.65.69,1.65.67,1,1.51,2.67,1.39,3.33-.53,2.89-22.06.86-22,0C13.46,44.46,13.51,44.36,13.63,44Z"/></svg>